<?xml version="1.0" encoding="UTF-8"?>
<svg width="123px" height="139px" viewBox="0 0 123 139" version="1.1" xmlns="http://www.w3.org/2000/svg" xmlns:xlink="http://www.w3.org/1999/xlink">
    <title>天工AI</title>
    <g id="page-1" stroke="none" stroke-width="1" fill="none" fill-rule="evenodd">
        <g id="group" transform="translate(-112, -658)" fill="#E8413D">
            <g id="logo" transform="translate(112.0001, 656.9998)">
                <path d="M51.6183487,31.255388 L42.9145196,26.2347553 C42.1708996,25.8056058 41.2535366,25.8056058 40.5099166,26.2347553 L34.8111464,29.5235127 C34.0675263,29.9526623 33.6088448,30.7456861 33.6088448,31.6039852 L33.6088448,41.6438617 C33.6088448,42.5688247 34.6109944,43.1465794 35.4116022,42.6840979 L51.6183487,33.3358604 C52.4203463,32.8733789 52.4203463,31.7178695 51.6183487,31.255388 M111.940526,53.6600481 L111.940526,48.7421891 C111.940526,48.2158212 111.659758,47.7297295 111.203856,47.4658512 L101.625752,41.9424608 C100.409551,41.2411 98.9111918,41.2411 97.6949908,41.9424608 L93.2846986,44.4868036 C92.0684977,45.1881644 90.5701381,45.1881644 89.3539371,44.4868036 L78.0119944,37.9412319 C76.7957935,37.239871 75.2974339,37.239871 74.0812329,37.9412319 L53.0347016,50.0838021 C51.8185006,50.785163 51.0693208,52.0823333 51.0693208,53.4850551 L51.0693208,84.9421311 C51.0693208,86.3448528 51.8185006,87.6420232 53.0347016,88.3433841 L82.4222866,105.296873 C83.6384876,105.998234 85.1368472,105.998234 86.3530481,105.296873 L105.737207,94.1153756 C105.930409,94.0028801 105.885931,93.7126139 105.667709,93.6626159 L100.160751,92.4251654 C99.9119514,92.369612 99.6548118,92.369612 99.4060118,92.4251654 L84.4974729,95.7819756 C84.3890573,95.8055858 84.2750819,95.7889198 84.1777858,95.7333665 L83.5481412,95.3694921 C83.3535491,95.2569966 83.3535491,94.9778411 83.5481412,94.8653456 L97.8214757,86.6295637 C99.0376767,85.9282028 100.537426,85.9282028 101.753627,86.6295637 L109.987655,91.3807627 C110.139159,91.4682592 110.326801,91.4682592 110.478305,91.3793738 L111.203856,90.961335 C111.659758,90.6974566 111.940526,90.211365 111.940526,89.6863859 L111.940526,79.5590129 C111.940526,79.1520847 111.61111,78.8215424 111.203856,78.8215424 L107.916639,78.8215424 C107.658109,78.8215424 107.403749,78.8895952 107.179968,79.0187567 L101.748067,82.1519648 C100.531866,82.8533257 99.0348968,82.8533257 97.8186958,82.1519648 L84.3626484,74.3911639 C83.7093747,74.0134012 83.976244,73.0162189 84.7309835,73.0162189 L120.383046,73.0162189 C121.741021,73.0162189 122.840467,74.1161749 122.840467,75.4716763 L122.840467,100.830385 C122.840467,103.987203 121.154465,106.903753 118.419055,108.482857 L65.8430351,138.816367 C63.1062355,140.39547 59.7342314,140.39547 56.9974318,138.816367 L4.42141172,108.482857 C1.68600202,106.903753 0,103.987203 0,100.830385 L0,40.1703094 C0,37.0134912 1.68600202,34.0955522 4.42141172,32.5178375 L56.9974318,2.18432766 C59.7342314,0.605224112 63.1062355,0.605224112 65.8430351,2.18432766 L118.419055,32.5178375 C121.154465,34.0955522 122.840467,37.0134912 122.840467,40.1703094 L122.840467,58.2015332 C122.840467,59.5570346 121.741021,60.6556018 120.383046,60.6556018 L100.253878,60.6556018 C99.7507179,60.6556018 99.5728051,59.9917394 100.007858,59.7403606 L107.994476,55.1322114 C109.041103,54.5294578 110.221166,54.1003082 111.429027,54.1503062 C111.709796,54.1614169 111.940526,53.9378147 111.940526,53.6600481" id="Fill-16"></path>
                <path d="M84.5723909,60.6562962 L73.3485935,60.6562962 C72.3422741,60.6562962 71.3540239,60.391029 70.482529,59.8882714 L62.1234061,55.0676307 C61.6883536,54.8162518 61.8662665,54.1510007 62.3694262,54.1510007 L73.5932236,54.1510007 C74.599543,54.1510007 75.5877932,54.414879 76.459288,54.9176367 L79.1085212,56.4467422 L84.818411,59.7396662 C85.2534635,59.991045 85.0755506,60.6562962 84.5723909,60.6562962" id="Fill-17"></path>
            </g>
        </g>
    </g>
</svg>